<?xml version="1.0" encoding="utf-8"?>
<svg width="81.59445px" height="30px" viewBox="0 0 81.59445 30" version="1.1" xmlns:xlink="http://www.w3.org/1999/xlink" xmlns="http://www.w3.org/2000/svg">
  <g id="Group-Copy">
    <path d="M15.1498 22.8261L7.45286 24.8618C7.32806 24.8769 7.20629 24.8276 7.12779 24.732C7.04828 24.6354 7.02413 24.5056 7.06439 24.3868L7.98725 21.6162L0.145397 15.7338C0.0377121 15.6523 -0.0166335 15.5194 0.00450095 15.3856C0.0256353 15.2517 0.120237 15.142 0.248049 15.0998L2.87072 14.2252L1.04512 10.574C0.981714 10.4472 0.997816 10.2952 1.08638 10.1855C1.17494 10.0758 1.31785 10.0245 1.45673 10.0607L5.15726 10.9856L6.05799 8.28442C6.09724 8.16466 6.19586 8.07509 6.31864 8.0459C6.44042 8.01773 6.56924 8.05396 6.6578 8.14252L10.8102 12.2939L9.06712 4.45306C9.03894 4.32626 9.08121 4.1924 9.17782 4.10585C9.27544 4.0183 9.41332 3.99012 9.53509 4.03138L12.2795 4.9462L15.1498 0.163791C15.2806 -0.0545971 15.6399 -0.0545971 15.7707 0.163791L18.641 4.9462L21.3854 4.03138C21.5122 3.99012 21.6461 4.0183 21.7427 4.10585C21.8403 4.1924 21.8826 4.32626 21.8534 4.45306L20.1113 12.2959L24.2627 8.14453C24.3513 8.05597 24.4791 8.01873 24.6029 8.04792C24.7247 8.0771 24.8233 8.16667 24.8636 8.28644L25.7643 10.9876L29.4648 10.0627C29.5987 10.0295 29.7466 10.0768 29.8352 10.1875C29.9237 10.2972 29.9398 10.4492 29.8764 10.576L28.0488 14.2272L30.6715 15.1018C30.7993 15.144 30.8929 15.2537 30.914 15.3876C30.9352 15.5214 30.8818 15.6543 30.7731 15.7358L22.9313 21.6172L23.8551 24.3888C23.8944 24.5076 23.8702 24.6374 23.7917 24.734C23.7142 24.8306 23.5985 24.8809 23.4667 24.8638L16.6304 22.8261L17.9348 30L14.3478 30L15.1498 22.8261Z" id="canada--maple-leaf_1_-path" fill="#F2E8A4" fill-rule="evenodd" stroke="none" />
    <path d="M78.4161 17.8673C77.8382 17.8673 77.3159 17.7358 76.8491 17.4727C76.3823 17.2097 76.0156 16.8393 75.7489 16.3614C75.4822 15.8835 75.3488 15.3297 75.3488 14.7C75.3488 14.0776 75.4859 13.5257 75.76 13.0441C76.0341 12.5625 76.4083 12.1921 76.8824 11.9328C77.3566 11.6735 77.8863 11.5438 78.4716 11.5438C79.0569 11.5438 79.5867 11.6735 80.0608 11.9328C80.535 12.1921 80.9091 12.5625 81.1833 13.0441C81.4574 13.5257 81.5945 14.0776 81.5945 14.7C81.5945 15.3223 81.4537 15.8743 81.1721 16.3559C80.8906 16.8374 80.5072 17.2097 80.0219 17.4727C79.5367 17.7358 79.0014 17.8673 78.4161 17.8673L78.4161 17.8673ZM78.4161 16.7672C78.7421 16.7672 79.0477 16.6894 79.3329 16.5338C79.6181 16.3782 79.8497 16.1448 80.0275 15.8337C80.2053 15.5225 80.2942 15.1446 80.2942 14.7001C80.2942 14.2556 80.209 13.8796 80.0386 13.5721C79.8682 13.2647 79.6422 13.0331 79.3607 12.8775C79.0792 12.722 78.7754 12.6442 78.4494 12.6442C78.1234 12.6442 77.8215 12.722 77.5437 12.8775C77.2659 13.0331 77.0454 13.2647 76.8824 13.5721C76.7195 13.8796 76.638 14.2556 76.638 14.7001C76.638 15.3595 76.8065 15.8689 77.1436 16.2282C77.4807 16.5875 77.9049 16.7672 78.4161 16.7672L78.4161 16.7672ZM74.5153 14.5555C74.5153 14.7852 74.5005 14.9926 74.4709 15.1779L69.7922 15.1779C69.8292 15.6668 70.0108 16.0595 70.3367 16.3559C70.6627 16.6522 71.0628 16.8004 71.537 16.8004C72.2186 16.8004 72.7002 16.5151 72.9817 15.9447L74.3486 15.9447C74.1634 16.5077 73.8282 16.9689 73.3429 17.3283C72.8576 17.6876 72.2556 17.8673 71.537 17.8673C70.9517 17.8673 70.4275 17.7358 69.9645 17.4727C69.5014 17.2097 69.1384 16.8393 68.8754 16.3614C68.6123 15.8835 68.4808 15.3297 68.4808 14.7C68.4808 14.0702 68.6086 13.5164 68.8642 13.0386C69.1198 12.5607 69.4792 12.1921 69.9422 11.9328C70.4053 11.6735 70.9369 11.5438 71.537 11.5438C72.1149 11.5438 72.6298 11.6698 73.0817 11.9217C73.5337 12.1736 73.8856 12.5273 74.1375 12.983C74.3894 13.4386 74.5153 13.9628 74.5153 14.5555L74.5153 14.5555ZM73.1928 14.1555C73.1854 13.6887 73.0187 13.3146 72.6927 13.033C72.3668 12.7515 71.963 12.6107 71.4814 12.6107C71.0443 12.6107 70.6701 12.7496 70.359 13.0275C70.0478 13.3053 69.8626 13.6813 69.8033 14.1555L73.1928 14.1555ZM63.8355 11.5438C64.3097 11.5438 64.7301 11.6383 65.0969 11.8272C65.4636 12.0161 65.7507 12.2514 65.9581 12.5329L65.9581 11.6438L67.2362 11.6438L67.2362 17.8673C67.2362 18.4303 67.1176 18.9323 66.8805 19.3731C66.6434 19.8139 66.3008 20.1603 65.8526 20.4122C65.4043 20.6641 64.869 20.79 64.2467 20.79C63.4169 20.79 62.7279 20.5956 62.1796 20.2066C61.6314 19.8176 61.3202 19.2898 61.2461 18.623L62.5019 18.623C62.5982 18.9415 62.8038 19.199 63.1187 19.3953C63.4336 19.5917 63.8096 19.6898 64.2467 19.6898C64.7579 19.6898 65.1709 19.5342 65.4858 19.2231C65.8007 18.9119 65.9581 18.46 65.9581 17.8673L65.9581 16.8448C65.7433 17.1338 65.4525 17.3764 65.0857 17.5728C64.719 17.7691 64.3023 17.8673 63.8355 17.8673C63.3021 17.8673 62.8149 17.732 62.3741 17.4616C61.9333 17.1912 61.5851 16.8134 61.3295 16.3281C61.0739 15.8428 60.9461 15.2927 60.9461 14.6778C60.9461 14.0628 61.0739 13.5183 61.3295 13.0441C61.5851 12.5699 61.9333 12.2014 62.3741 11.9383C62.8149 11.6753 63.3021 11.5438 63.8355 11.5438L63.8355 11.5438ZM65.9581 14.7001C65.9581 14.2778 65.8711 13.9111 65.697 13.5999C65.5229 13.2887 65.295 13.0517 65.0135 12.8887C64.732 12.7257 64.4282 12.6442 64.1022 12.6442C63.7762 12.6442 63.4725 12.7238 63.1909 12.8831C62.9094 13.0424 62.6816 13.2758 62.5075 13.5832C62.3334 13.8907 62.2463 14.2556 62.2463 14.6779C62.2463 15.1002 62.3334 15.4706 62.5075 15.7892C62.6816 16.1078 62.9112 16.3504 63.1965 16.5171C63.4817 16.6838 63.7836 16.7672 64.1022 16.7672C64.4282 16.7672 64.732 16.6857 65.0135 16.5227C65.295 16.3597 65.5229 16.1208 65.697 15.8059C65.8711 15.491 65.9581 15.1224 65.9581 14.7001L65.9581 14.7001ZM57.2453 11.5438C57.7269 11.5438 58.1585 11.6438 58.54 11.8439C58.9216 12.0439 59.2198 12.3403 59.4347 12.7329C59.6495 13.1256 59.7569 13.5998 59.7569 14.1554L59.7569 17.7672L58.5011 17.7672L58.5011 14.3444C58.5011 13.7961 58.3641 13.3757 58.09 13.083C57.8158 12.7904 57.4417 12.644 56.9675 12.644C56.4934 12.644 56.1174 12.7904 55.8395 13.083C55.5617 13.3757 55.4228 13.7961 55.4228 14.3444L55.4228 17.7672L54.1559 17.7672L54.1559 11.6438L55.4228 11.6438L55.4228 12.344C55.6302 12.0921 55.8951 11.8957 56.2174 11.755C56.5397 11.6142 56.8823 11.5438 57.2453 11.5438L57.2453 11.5438ZM46.1988 14.6778C46.1988 14.0628 46.3266 13.5183 46.5822 13.0441C46.8378 12.5699 47.186 12.2014 47.6268 11.9383C48.0677 11.6753 48.5548 11.5438 49.0882 11.5438C49.5698 11.5438 49.9902 11.6383 50.3496 11.8272C50.7089 12.0161 50.996 12.2514 51.2108 12.5329L51.2108 11.6438L52.4889 11.6438L52.4889 17.7672L51.2108 17.7672L51.2108 16.856C50.996 17.1449 50.7033 17.3857 50.3329 17.5783C49.9625 17.7709 49.5402 17.8673 49.066 17.8673C48.54 17.8673 48.0584 17.732 47.6213 17.4616C47.1842 17.1912 46.8378 16.8134 46.5822 16.3281C46.3266 15.8428 46.1988 15.2927 46.1988 14.6778L46.1988 14.6778ZM51.2109 14.7001C51.2109 14.2778 51.1238 13.9111 50.9497 13.5999C50.7756 13.2887 50.5478 13.0517 50.2662 12.8887C49.9847 12.7257 49.6809 12.6442 49.3549 12.6442C49.029 12.6442 48.7252 12.7238 48.4437 12.8831C48.1621 13.0424 47.9343 13.2758 47.7602 13.5832C47.5861 13.8907 47.499 14.2556 47.499 14.6779C47.499 15.1002 47.5861 15.4706 47.7602 15.7892C47.9343 16.1078 48.164 16.3504 48.4492 16.5171C48.7345 16.6838 49.0364 16.7672 49.3549 16.7672C49.6809 16.7672 49.9847 16.6857 50.2662 16.5227C50.5478 16.3597 50.7756 16.1208 50.9497 15.8059C51.1238 15.491 51.2109 15.1224 51.2109 14.7001L51.2109 14.7001ZM37.6082 13.8887C37.6082 13.133 37.7842 12.4551 38.1361 11.855C38.488 11.2548 38.9659 10.7862 39.5697 10.4491C40.1736 10.112 40.8348 9.94348 41.5534 9.94348C42.3758 9.94348 43.1074 10.1454 43.7483 10.5492C44.3892 10.9529 44.8541 11.5253 45.143 12.2661L43.6205 12.2661C43.4205 11.8587 43.1426 11.5549 42.787 11.3549C42.4314 11.1548 42.0202 11.0548 41.5534 11.0548C41.0422 11.0548 40.5866 11.1696 40.1865 11.3993C39.7864 11.629 39.4734 11.9587 39.2474 12.3884C39.0215 12.8181 38.9085 13.3182 38.9085 13.8887C38.9085 14.4592 39.0215 14.9593 39.2474 15.389C39.4734 15.8187 39.7864 16.1502 40.1865 16.3836C40.5866 16.617 41.0422 16.7337 41.5534 16.7337C42.0202 16.7337 42.4314 16.6337 42.787 16.4336C43.1426 16.2336 43.4205 15.9298 43.6205 15.5223L45.143 15.5223C44.8541 16.2632 44.3892 16.8337 43.7483 17.2338C43.1074 17.6338 42.3758 17.8339 41.5534 17.8339C40.8274 17.8339 40.1643 17.6653 39.5642 17.3282C38.9641 16.9911 38.488 16.5225 38.1361 15.9224C37.7842 15.3223 37.6082 14.6444 37.6082 13.8887L37.6082 13.8887Z" id="Cangeo-Solutions-Inc." fill="#FFFFFF" stroke="none" />
  </g>
</svg>