<?xml version="1.0" encoding="utf-8"?>
<svg width="104.00922px" height="30px" viewBox="0 0 104.00922 30" version="1.1" xmlns:xlink="http://www.w3.org/1999/xlink" xmlns="http://www.w3.org/2000/svg">
  <g id="Group-Copy">
    <path d="M15.1498 22.8261L7.45286 24.8618C7.32806 24.8769 7.20629 24.8276 7.12779 24.732C7.04828 24.6354 7.02413 24.5056 7.06439 24.3868L7.98725 21.6162L0.145397 15.7338C0.0377121 15.6523 -0.0166335 15.5194 0.00450095 15.3856C0.0256353 15.2517 0.120237 15.142 0.248049 15.0998L2.87072 14.2252L1.04512 10.574C0.981714 10.4472 0.997816 10.2952 1.08638 10.1855C1.17494 10.0758 1.31785 10.0245 1.45673 10.0607L5.15726 10.9856L6.05799 8.28442C6.09724 8.16466 6.19586 8.07509 6.31864 8.0459C6.44042 8.01773 6.56924 8.05396 6.6578 8.14252L10.8102 12.2939L9.06712 4.45306C9.03894 4.32626 9.08121 4.1924 9.17782 4.10585C9.27544 4.0183 9.41332 3.99012 9.53509 4.03138L12.2795 4.9462L15.1498 0.163791C15.2806 -0.0545971 15.6399 -0.0545971 15.7707 0.163791L18.641 4.9462L21.3854 4.03138C21.5122 3.99012 21.6461 4.0183 21.7427 4.10585C21.8403 4.1924 21.8826 4.32626 21.8534 4.45306L20.1113 12.2959L24.2627 8.14453C24.3513 8.05597 24.4791 8.01873 24.6029 8.04792C24.7247 8.0771 24.8233 8.16667 24.8636 8.28644L25.7643 10.9876L29.4648 10.0627C29.5987 10.0295 29.7466 10.0768 29.8352 10.1875C29.9237 10.2972 29.9398 10.4492 29.8764 10.576L28.0488 14.2272L30.6715 15.1018C30.7993 15.144 30.8929 15.2537 30.914 15.3876C30.9352 15.5214 30.8818 15.6543 30.7731 15.7358L22.9313 21.6172L23.8551 24.3888C23.8944 24.5076 23.8702 24.6374 23.7917 24.734C23.7142 24.8306 23.5985 24.8809 23.4667 24.8638L16.6304 22.8261L17.9348 30L14.3478 30L15.1498 22.8261Z" id="canada--maple-leaf_1_-path" fill="#F2E8A4" fill-rule="evenodd" stroke="none" />
    <path d="M103.254 27.2826C103.038 27.2826 102.856 27.2092 102.709 27.0624C102.562 26.9156 102.489 26.7339 102.489 26.5172C102.489 26.3005 102.562 26.1188 102.709 25.972C102.856 25.8252 103.038 25.7518 103.254 25.7518C103.464 25.7518 103.642 25.8252 103.789 25.972C103.936 26.1188 104.009 26.3005 104.009 26.5172C104.009 26.7339 103.936 26.9156 103.789 27.0624C103.642 27.2092 103.464 27.2826 103.254 27.2826L103.254 27.2826ZM96.0828 24.3154C96.0828 23.7213 96.2034 23.1988 96.4445 22.748C96.6857 22.2971 97.0195 21.9494 97.4458 21.7047C97.8722 21.4601 98.3615 21.3378 98.9137 21.3378C99.6127 21.3378 100.191 21.5038 100.649 21.8358C101.107 22.1678 101.416 22.6414 101.577 23.2565L100.287 23.2565C100.182 22.9699 100.015 22.7462 99.7839 22.5854C99.5532 22.4247 99.2632 22.3443 98.9137 22.3443C98.4244 22.3443 98.0347 22.5173 97.7446 22.8633C97.4546 23.2093 97.3095 23.6933 97.3095 24.3154C97.3095 24.9375 97.4546 25.4233 97.7446 25.7728C98.0347 26.1223 98.4244 26.297 98.9137 26.297C99.6057 26.297 100.063 25.993 100.287 25.3848L101.577 25.3848C101.409 25.972 101.094 26.4386 100.633 26.7845C100.172 27.1305 99.5987 27.3035 98.9137 27.3035C98.3615 27.3035 97.8722 27.1795 97.4458 26.9313C97.0195 26.6832 96.6857 26.3337 96.4445 25.8829C96.2034 25.432 96.0828 24.9095 96.0828 24.3154L96.0828 24.3154ZM92.5914 21.3378C93.0458 21.3378 93.4529 21.4321 93.8129 21.6209C94.1729 21.8096 94.4542 22.0892 94.6569 22.4596C94.8596 22.8301 94.961 23.2774 94.961 23.8017L94.961 27.2092L93.7762 27.2092L93.7762 23.9799C93.7762 23.4627 93.6469 23.066 93.3883 22.7899C93.1296 22.5138 92.7766 22.3757 92.3293 22.3757C91.882 22.3757 91.5272 22.5138 91.2651 22.7899C91.003 23.066 90.8719 23.4627 90.8719 23.9799L90.8719 27.2092L89.6767 27.2092L89.6767 21.4321L90.8719 21.4321L90.8719 22.0927C91.0676 21.855 91.3175 21.6698 91.6216 21.537C91.9256 21.4042 92.2489 21.3378 92.5914 21.3378L92.5914 21.3378ZM88.104 19.9222L88.104 27.2091L86.9087 27.2091L86.9087 19.9222L88.104 19.9222ZM80.6808 27.3035C80.2265 27.3035 79.8194 27.2214 79.4594 27.0571C79.0994 26.8929 78.8146 26.6692 78.6049 26.3861C78.3952 26.103 78.2833 25.7868 78.2694 25.4373L79.5066 25.4373C79.5275 25.6819 79.6446 25.8864 79.8578 26.0506C80.071 26.2149 80.3383 26.297 80.6599 26.297C80.9954 26.297 81.2557 26.2324 81.441 26.103C81.6262 25.9737 81.7188 25.8077 81.7188 25.605C81.7188 25.3883 81.6157 25.2276 81.4095 25.1227C81.2033 25.0179 80.8765 24.9026 80.4292 24.7767C79.9958 24.6579 79.6429 24.5426 79.3703 24.4307C79.0977 24.3189 78.8618 24.1477 78.6625 23.917C78.4633 23.6863 78.3637 23.3823 78.3637 23.0048C78.3637 22.6973 78.4546 22.4159 78.6363 22.1608C78.8181 21.9057 79.0784 21.7047 79.4174 21.5579C79.7564 21.4112 80.1461 21.3378 80.5865 21.3378C81.2435 21.3378 81.773 21.5038 82.1749 21.8358C82.5768 22.1678 82.7917 22.6204 82.8197 23.1936L81.6245 23.1936C81.6035 22.9349 81.4986 22.7287 81.3099 22.575C81.1212 22.4212 80.8661 22.3443 80.5445 22.3443C80.23 22.3443 79.9888 22.4037 79.8211 22.5225C79.6533 22.6414 79.5695 22.7986 79.5695 22.9943C79.5695 23.1481 79.6254 23.2774 79.7372 23.3823C79.8491 23.4871 79.9854 23.5693 80.1461 23.6287C80.3069 23.6881 80.5445 23.7632 80.8591 23.8541C81.2785 23.9659 81.6227 24.0795 81.8918 24.1948C82.1609 24.3102 82.3933 24.4797 82.589 24.7033C82.7848 24.927 82.8861 25.2241 82.8931 25.5945C82.8931 25.9231 82.8022 26.2166 82.6205 26.4753C82.4388 26.7339 82.1819 26.9366 81.8499 27.0834C81.5179 27.2301 81.1282 27.3035 80.6808 27.3035L80.6808 27.3035ZM74.6941 21.3378C75.1484 21.3378 75.5556 21.4321 75.9156 21.6209C76.2755 21.8096 76.5569 22.0892 76.7596 22.4596C76.9623 22.8301 77.0636 23.2774 77.0636 23.8017L77.0636 27.2092L75.8789 27.2092L75.8789 23.9799C75.8789 23.4627 75.7495 23.066 75.4909 22.7899C75.2323 22.5138 74.8793 22.3757 74.432 22.3757C73.9846 22.3757 73.6299 22.5138 73.3678 22.7899C73.1057 23.066 72.9746 23.4627 72.9746 23.9799L72.9746 27.2092L71.7794 27.2092L71.7794 21.4321L72.9746 21.4321L72.9746 22.0927C73.1703 21.855 73.4202 21.6698 73.7243 21.537C74.0283 21.4042 74.3516 21.3378 74.6941 21.3378L74.6941 21.3378ZM67.596 27.3035C67.0508 27.3035 66.558 27.1795 66.1176 26.9313C65.6773 26.6832 65.3313 26.3337 65.0797 25.8829C64.828 25.432 64.7022 24.9095 64.7022 24.3154C64.7022 23.7283 64.8315 23.2075 65.0901 22.7532C65.3488 22.2989 65.7017 21.9494 66.1491 21.7047C66.5964 21.4601 67.0962 21.3378 67.6484 21.3378C68.2006 21.3378 68.7004 21.4601 69.1477 21.7047C69.595 21.9494 69.948 22.2989 70.2066 22.7532C70.4653 23.2075 70.5946 23.7283 70.5946 24.3154C70.5946 24.9026 70.4618 25.4233 70.1962 25.8776C69.9306 26.332 69.5688 26.6832 69.111 26.9313C68.6532 27.1795 68.1482 27.3035 67.596 27.3035L67.596 27.3035ZM67.596 26.2655C67.9035 26.2655 68.1919 26.1922 68.461 26.0454C68.7301 25.8986 68.9485 25.6784 69.1163 25.3848C69.284 25.0913 69.3679 24.7348 69.3679 24.3154C69.3679 23.896 69.2875 23.5413 69.1267 23.2512C68.966 22.9611 68.7528 22.7427 68.4872 22.5959C68.2216 22.4491 67.935 22.3757 67.6274 22.3757C67.3199 22.3757 67.0351 22.4491 66.7729 22.5959C66.5108 22.7427 66.3029 22.9611 66.1491 23.2512C65.9953 23.5413 65.9184 23.896 65.9184 24.3154C65.9184 24.9375 66.0775 25.418 66.3955 25.757C66.7135 26.096 67.1137 26.2655 67.596 26.2655L67.596 26.2655ZM62.9303 20.6667C62.7136 20.6667 62.5319 20.5934 62.3851 20.4466C62.2383 20.2998 62.1649 20.118 62.1649 19.9014C62.1649 19.6847 62.2383 19.5029 62.3851 19.3562C62.5319 19.2094 62.7136 19.136 62.9303 19.136C63.14 19.136 63.3182 19.2094 63.465 19.3562C63.6118 19.5029 63.6852 19.6847 63.6852 19.9014C63.6852 20.118 63.6118 20.2998 63.465 20.4466C63.3182 20.5934 63.14 20.6667 62.9303 20.6667L62.9303 20.6667ZM63.5174 21.4321L63.5174 27.2092L62.3222 27.2092L62.3222 21.4321L63.5174 21.4321ZM59.8164 22.4072L59.8164 25.605C59.8164 25.8217 59.867 25.9772 59.9684 26.0716C60.0697 26.166 60.2427 26.2131 60.4874 26.2131L61.2213 26.2131L61.2213 27.2092L60.2777 27.2092C59.7395 27.2092 59.3271 27.0834 59.0405 26.8317C58.7539 26.5801 58.6106 26.1712 58.6106 25.605L58.6106 22.4072L57.9291 22.4072L57.9291 21.4321L58.6106 21.4321L58.6106 19.9957L59.8164 19.9957L59.8164 21.4321L61.2213 21.4321L61.2213 22.4072L59.8164 22.4072ZM56.8492 21.4321L56.8492 27.2092L55.654 27.2092L55.654 26.5277C55.4652 26.7653 55.2188 26.9523 54.9148 27.0886C54.6107 27.2249 54.2875 27.2931 53.945 27.2931C53.4906 27.2931 53.0835 27.1987 52.7235 27.01C52.3635 26.8212 52.0804 26.5417 51.8742 26.1712C51.668 25.8007 51.5649 25.3534 51.5649 24.8292L51.5649 21.4321L52.7497 21.4321L52.7497 24.6509C52.7497 25.1682 52.879 25.5648 53.1376 25.8409C53.3963 26.117 53.7492 26.2551 54.1966 26.2551C54.6439 26.2551 54.9987 26.117 55.2608 25.8409C55.5229 25.5648 55.654 25.1682 55.654 24.6509L55.654 21.4321L56.8492 21.4321ZM50.0447 19.4506L50.0447 27.2092L48.8494 27.2092L48.8494 19.4506L50.0447 19.4506ZM44.666 27.3035C44.1208 27.3035 43.628 27.1795 43.1877 26.9313C42.7473 26.6832 42.4013 26.3337 42.1497 25.8829C41.8981 25.432 41.7723 24.9095 41.7723 24.3154C41.7723 23.7283 41.9016 23.2075 42.1602 22.7532C42.4188 22.2989 42.7718 21.9494 43.2191 21.7047C43.6665 21.4601 44.1663 21.3378 44.7185 21.3378C45.2706 21.3378 45.7704 21.4601 46.2178 21.7047C46.6651 21.9494 47.0181 22.2989 47.2767 22.7532C47.5353 23.2075 47.6646 23.7283 47.6646 24.3154C47.6646 24.9026 47.5318 25.4233 47.2662 25.8776C47.0006 26.332 46.6389 26.6832 46.1811 26.9313C45.7232 27.1795 45.2182 27.3035 44.666 27.3035L44.666 27.3035ZM44.666 26.2655C44.9736 26.2655 45.2619 26.1922 45.531 26.0454C45.8001 25.8986 46.0185 25.6784 46.1863 25.3848C46.3541 25.0913 46.4379 24.7348 46.4379 24.3154C46.4379 23.896 46.3576 23.5413 46.1968 23.2512C46.036 22.9611 45.8228 22.7427 45.5572 22.5959C45.2916 22.4491 45.005 22.3757 44.6975 22.3757C44.3899 22.3757 44.1051 22.4491 43.843 22.5959C43.5809 22.7427 43.3729 22.9611 43.2191 23.2512C43.0654 23.5413 42.9885 23.896 42.9885 24.3154C42.9885 24.9375 43.1475 25.418 43.4655 25.757C43.7836 26.096 44.1837 26.2655 44.666 26.2655L44.666 26.2655ZM38.2284 27.2826C37.7392 27.2826 37.2988 27.197 36.9074 27.0257C36.5159 26.8545 36.2084 26.6116 35.9847 26.297C35.7611 25.9825 35.6492 25.6155 35.6492 25.1962L36.9283 25.1962C36.9563 25.5107 37.0804 25.7693 37.3005 25.972C37.5207 26.1747 37.83 26.2761 38.2284 26.2761C38.6408 26.2761 38.9624 26.1765 39.193 25.9773C39.4237 25.778 39.539 25.5212 39.539 25.2066C39.539 24.962 39.4674 24.7628 39.3241 24.609C39.1808 24.4552 39.0026 24.3364 38.7894 24.2525C38.5762 24.1687 38.2809 24.0778 37.9034 23.9799C37.4281 23.8541 37.0419 23.7266 36.7449 23.5972C36.4478 23.4679 36.1944 23.267 35.9847 22.9944C35.775 22.7218 35.6702 22.3583 35.6702 21.904C35.6702 21.4846 35.775 21.1176 35.9847 20.8031C36.1944 20.4885 36.488 20.2474 36.8654 20.0796C37.2429 19.9119 37.6797 19.828 38.176 19.828C38.882 19.828 39.4604 20.0045 39.9112 20.3575C40.3621 20.7105 40.612 21.1945 40.6609 21.8096L39.3398 21.8096C39.3188 21.544 39.193 21.3168 38.9624 21.1281C38.7317 20.9394 38.4277 20.845 38.0502 20.845C37.7077 20.845 37.4281 20.9324 37.2114 21.1071C36.9947 21.2819 36.8864 21.5335 36.8864 21.862C36.8864 22.0857 36.9546 22.2692 37.0909 22.4125C37.2272 22.5558 37.4002 22.6693 37.6098 22.7532C37.8195 22.8371 38.1061 22.928 38.4696 23.0258C38.9519 23.1586 39.3451 23.2914 39.6491 23.4242C39.9532 23.557 40.2118 23.7615 40.425 24.0376C40.6382 24.3137 40.7448 24.6824 40.7448 25.1437C40.7448 25.5142 40.6452 25.8637 40.4459 26.1922C40.2467 26.5207 39.9567 26.7846 39.5757 26.9838C39.1948 27.183 38.7457 27.2826 38.2284 27.2826L38.2284 27.2826ZM86.1591 11.5765C85.6139 11.5765 85.1211 11.4524 84.6807 11.2043C84.2404 10.9561 83.8944 10.6067 83.6428 10.1558C83.3911 9.70498 83.2653 9.18249 83.2653 8.58836C83.2653 8.00122 83.3946 7.48048 83.6532 7.02615C83.9119 6.57181 84.2648 6.22232 84.7122 5.97768C85.1595 5.73304 85.6593 5.61072 86.2115 5.61072C86.7637 5.61072 87.2635 5.73304 87.7108 5.97768C88.1581 6.22232 88.5111 6.57181 88.7698 7.02615C89.0284 7.48048 89.1577 8.00122 89.1577 8.58836C89.1577 9.1755 89.0249 9.69624 88.7593 10.1506C88.4937 10.6049 88.1319 10.9561 87.6741 11.2043C87.2163 11.4524 86.7113 11.5765 86.1591 11.5765L86.1591 11.5765ZM86.1591 10.5385C86.4666 10.5385 86.7549 10.4651 87.024 10.3183C87.2932 10.1715 87.5116 9.95135 87.6793 9.65778C87.8471 9.36421 87.931 9.00773 87.931 8.58834C87.931 8.16896 87.8506 7.81423 87.6898 7.52415C87.5291 7.23408 87.3159 7.01565 87.0503 6.86886C86.7847 6.72207 86.4981 6.64868 86.1905 6.64868C85.883 6.64868 85.5981 6.72207 85.336 6.86886C85.0739 7.01565 84.866 7.23408 84.7122 7.52415C84.5584 7.81423 84.4815 8.16896 84.4815 8.58834C84.4815 9.21043 84.6405 9.69098 84.9586 10.03C85.2766 10.369 85.6768 10.5385 86.1591 10.5385L86.1591 10.5385ZM82.479 8.45206C82.479 8.66875 82.465 8.86446 82.437 9.0392L78.023 9.0392C78.0579 9.50053 78.2292 9.87099 78.5367 10.1506C78.8443 10.4302 79.2217 10.57 79.6691 10.57C80.3121 10.57 80.7665 10.3009 81.0321 9.76264L82.3217 9.76264C82.1469 10.2939 81.8307 10.729 81.3728 11.068C80.915 11.407 80.3471 11.5765 79.6691 11.5765C79.1169 11.5765 78.6223 11.4524 78.1855 11.2043C77.7486 10.9561 77.4061 10.6067 77.158 10.1558C76.9099 9.70498 76.7858 9.18249 76.7858 8.58836C76.7858 7.99423 76.9064 7.47174 77.1475 7.0209C77.3886 6.57006 77.7277 6.22232 78.1645 5.97768C78.6014 5.73304 79.1029 5.61072 79.6691 5.61072C80.2143 5.61072 80.7001 5.72954 81.1264 5.9672C81.5528 6.20485 81.8848 6.53861 82.1225 6.96848C82.3601 7.39835 82.479 7.89288 82.479 8.45206L82.479 8.45206ZM81.2313 8.07456C81.2243 7.6342 81.067 7.28122 80.7595 7.0156C80.4519 6.74999 80.071 6.61719 79.6167 6.61719C79.2043 6.61719 78.8513 6.74825 78.5577 7.01036C78.2641 7.27248 78.0894 7.62721 78.0335 8.07456L81.2313 8.07456ZM72.4032 5.61072C72.8506 5.61072 73.2472 5.69984 73.5932 5.87808C73.9392 6.05632 74.2101 6.27824 74.4058 6.54385L74.4058 5.70508L75.6115 5.70508L75.6115 11.5765C75.6115 12.1077 75.4997 12.5813 75.276 12.9972C75.0523 13.4131 74.7291 13.7398 74.3062 13.9775C73.8833 14.2151 73.3783 14.334 72.7911 14.334C72.0083 14.334 71.3582 14.1505 70.841 13.7835C70.3238 13.4165 70.0302 12.9185 69.9603 12.2894L71.1451 12.2894C71.2359 12.59 71.4299 12.8329 71.727 13.0181C72.024 13.2034 72.3788 13.296 72.7911 13.296C73.2734 13.296 73.6631 13.1492 73.9602 12.8556C74.2572 12.562 74.4058 12.1357 74.4058 11.5765L74.4058 10.6119C74.2031 10.8845 73.9287 11.1134 73.5827 11.2986C73.2367 11.4839 72.8436 11.5765 72.4032 11.5765C71.8999 11.5765 71.4404 11.4489 71.0245 11.1938C70.6086 10.9387 70.2801 10.5822 70.0389 10.1244C69.7978 9.66653 69.6772 9.14754 69.6772 8.56739C69.6772 7.98724 69.7978 7.47349 70.0389 7.02615C70.2801 6.5788 70.6086 6.23106 71.0245 5.98292C71.4404 5.73479 71.8999 5.61072 72.4032 5.61072L72.4032 5.61072ZM74.4058 8.58834C74.4058 8.18993 74.3236 7.84393 74.1594 7.55036C73.9951 7.25679 73.7802 7.03312 73.5146 6.87934C73.249 6.72557 72.9624 6.64868 72.6548 6.64868C72.3473 6.64868 72.0607 6.72382 71.7951 6.8741C71.5295 7.02438 71.3145 7.24456 71.1503 7.53464C70.986 7.82471 70.9039 8.16896 70.9039 8.56738C70.9039 8.96579 70.986 9.31528 71.1503 9.61584C71.3145 9.9164 71.5312 10.1453 71.8003 10.3026C72.0694 10.4599 72.3543 10.5385 72.6548 10.5385C72.9624 10.5385 73.249 10.4616 73.5146 10.3078C73.7802 10.1541 73.9951 9.92863 74.1594 9.63157C74.3236 9.3345 74.4058 8.98676 74.4058 8.58834L74.4058 8.58834ZM66.1858 5.61072C66.6401 5.61072 67.0473 5.70508 67.4073 5.8938C67.7672 6.08253 68.0486 6.36212 68.2513 6.73258C68.454 7.10303 68.5553 7.55038 68.5553 8.07461L68.5553 11.4821L67.3706 11.4821L67.3706 8.25285C67.3706 7.73561 67.2412 7.33894 66.9826 7.06284C66.724 6.78675 66.371 6.6487 65.9237 6.6487C65.4763 6.6487 65.1216 6.78675 64.8595 7.06284C64.5974 7.33894 64.4663 7.73561 64.4663 8.25285L64.4663 11.4821L63.2711 11.4821L63.2711 5.70508L64.4663 5.70508L64.4663 6.36561C64.662 6.12796 64.9119 5.94273 65.216 5.80993C65.52 5.67712 65.8433 5.61072 66.1858 5.61072L66.1858 5.61072ZM55.764 8.56739C55.764 7.98724 55.8846 7.47349 56.1258 7.02615C56.3669 6.5788 56.6954 6.23106 57.1113 5.98292C57.5272 5.73479 57.9868 5.61072 58.4901 5.61072C58.9444 5.61072 59.3411 5.69984 59.6801 5.87808C60.0191 6.05632 60.2899 6.27824 60.4926 6.54385L60.4926 5.70508L61.6984 5.70508L61.6984 11.4821L60.4926 11.4821L60.4926 10.6224C60.2899 10.895 60.0138 11.1222 59.6643 11.3039C59.3148 11.4856 58.9164 11.5765 58.4691 11.5765C57.9728 11.5765 57.5185 11.4489 57.1061 11.1938C56.6937 10.9387 56.3669 10.5822 56.1258 10.1244C55.8846 9.66653 55.764 9.14754 55.764 8.56739L55.764 8.56739ZM60.4926 8.58834C60.4926 8.18993 60.4105 7.84393 60.2462 7.55036C60.082 7.25679 59.867 7.03312 59.6014 6.87934C59.3358 6.72557 59.0492 6.64868 58.7417 6.64868C58.4341 6.64868 58.1475 6.72382 57.8819 6.8741C57.6163 7.02438 57.4014 7.24456 57.2371 7.53464C57.0729 7.82471 56.9907 8.16896 56.9907 8.56738C56.9907 8.96579 57.0729 9.31528 57.2371 9.61584C57.4014 9.9164 57.6181 10.1453 57.8872 10.3026C58.1563 10.4599 58.4411 10.5385 58.7417 10.5385C59.0492 10.5385 59.3358 10.4616 59.6014 10.3078C59.867 10.1541 60.082 9.92863 60.2462 9.63157C60.4105 9.3345 60.4926 8.98676 60.4926 8.58834L60.4926 8.58834ZM47.6594 7.82301C47.6594 7.11005 47.8254 6.47049 48.1574 5.90431C48.4894 5.33814 48.9403 4.89604 49.5099 4.578C50.0796 4.25997 50.7034 4.10095 51.3814 4.10095C52.1573 4.10095 52.8476 4.29142 53.4522 4.67237C54.0568 5.05331 54.4954 5.59327 54.768 6.29225L53.3316 6.29225C53.1429 5.90781 52.8808 5.62123 52.5452 5.4325C52.2097 5.24378 51.8218 5.14942 51.3814 5.14942C50.8992 5.14942 50.4693 5.25776 50.0918 5.47444C49.7144 5.69113 49.4191 6.00217 49.2059 6.40758C48.9927 6.81298 48.8861 7.28479 48.8861 7.82301C48.8861 8.36122 48.9927 8.83303 49.2059 9.23844C49.4191 9.64384 49.7144 9.95664 50.0918 10.1768C50.4693 10.397 50.8992 10.5071 51.3814 10.5071C51.8218 10.5071 52.2097 10.4127 52.5452 10.224C52.8808 10.0353 53.1429 9.74869 53.3316 9.36425L54.768 9.36425C54.4954 10.0632 54.0568 10.6014 53.4522 10.9789C52.8476 11.3563 52.1573 11.5451 51.3814 11.5451C50.6964 11.5451 50.0709 11.386 49.5047 11.068C48.9385 10.75 48.4894 10.3079 48.1574 9.7417C47.8254 9.17553 47.6594 8.53596 47.6594 7.82301L47.6594 7.82301Z" id="Cangeo--Solutions-Inc." fill="#FFFFFF" stroke="none" />
  </g>
</svg>